Oxanium-Light.ufo
<glyph name="exclam" format="2">
  <advance width="255"/>
  <unicode hex="0021"/>
  <outline>
    <contour>
      <point x="86" y="0" type="line"/>
      <point x="86" y="98" type="line"/>
      <point x="169" y="98" type="line"/>
      <point x="169" y="0" type="line"/>
    </contour>
    <contour>
      <point x="94" y="206" type="line"/>
      <point x="94" y="690" type="line"/>
      <point x="160" y="690" type="line"/>
      <point x="160" y="206" type="line"/>
    </contour>
  </outline>
</glyph>
<glyph name="quotesingle" format="2">
  <advance width="204"/>
  <unicode hex="0027"/>
  <outline>
    <contour>
      <point x="72" y="496" type="line"/>
      <point x="72" y="740" type="line"/>
      <point x="131" y="740" type="line"/>
      <point x="131" y="496" type="line"/>
    </contour>
  </outline>
</glyph>
<glyph name="plus" format="2">
  <advance width="578"/>
  <unicode hex="002B"/>
  <outline>
    <contour>
      <point x="65" y="307" type="line"/>
      <point x="65" y="363" type="line"/>
      <point x="260" y="363" type="line"/>
      <point x="260" y="570" type="line"/>
      <point x="318" y="570" type="line"/>
      <point x="318" y="363" type="line"/>
      <point x="513" y="363" type="line"/>
      <point x="513" y="307" type="line"/>
      <point x="318" y="307" type="line"/>
      <point x="318" y="100" type="line"/>
      <point x="260" y="100" type="line"/>
      <point x="260" y="307" type="line"/>
    </contour>
  </outline>
</glyph>
<glyph name="comma" format="2">
  <advance width="255"/>
  <unicode hex="002C"/>
  <outline>
    <contour>
      <point x="35" y="-125" type="line"/>
      <point x="88" y="98" type="line"/>
      <point x="159" y="98" type="line"/>
      <point x="166" y="86" type="line"/>
      <point x="83" y="-137" type="line"/>
    </contour>
  </outline>
</glyph>
<glyph name="period" format="2">
  <advance width="255"/>
  <unicode hex="002E"/>
  <outline>
    <contour>
      <point x="86" y="0" type="line"/>
      <point x="86" y="98" type="line"/>
      <point x="169" y="98" type="line"/>
      <point x="169" y="0" type="line"/>
    </contour>
  </outline>
</glyph>
<glyph name="one" format="2">
  <advance width="578"/>
  <unicode hex="0031"/>
  <outline>
    <contour>
      <point x="96" y="0" type="line"/>
      <point x="96" y="60" type="line"/>
      <point x="272" y="60" type="line"/>
      <point x="272" y="630" type="line"/>
      <point x="134" y="630" type="line"/>
      <point x="134" y="660" type="line"/>
      <point x="172" y="690" type="line"/>
      <point x="338" y="690" type="line"/>
      <point x="338" y="60" type="line"/>
      <point x="498" y="60" type="line"/>
      <point x="498" y="0" type="line"/>
    </contour>
  </outline>
</glyph>
<glyph name="three" format="2">
  <advance width="578"/>
  <unicode hex="0033"/>
  <outline>
    <contour>
      <point x="78" y="30" type="line"/>
      <point x="78" y="60" type="line"/>
      <point x="365" y="60" type="line" smooth="yes"/>
      <point x="444" y="60"/>
      <point x="444" y="139" type="qcurve" smooth="yes"/>
      <point x="444" y="255" type="line" smooth="yes"/>
      <point x="444" y="334"/>
      <point x="365" y="334" type="qcurve" smooth="yes"/>
      <point x="152" y="334" type="line"/>
      <point x="152" y="394" type="line"/>
      <point x="365" y="394" type="line" smooth="yes"/>
      <point x="444" y="394"/>
      <point x="444" y="473" type="qcurve" smooth="yes"/>
      <point x="444" y="551" type="line" smooth="yes"/>
      <point x="444" y="630"/>
      <point x="365" y="630" type="qcurve" smooth="yes"/>
      <point x="88" y="630" type="line"/>
      <point x="88" y="660" type="line"/>
      <point x="126" y="690" type="line"/>
      <point x="362" y="690" type="line" smooth="yes"/>
      <point x="510" y="690"/>
      <point x="510" y="542" type="qcurve" smooth="yes"/>
      <point x="510" y="466" type="line" smooth="yes"/>
      <point x="510" y="426"/>
      <point x="485" y="401" type="qcurve" smooth="yes"/>
      <point x="450" y="366" type="line"/>
      <point x="485" y="331" type="line" smooth="yes"/>
      <point x="510" y="306"/>
      <point x="510" y="266" type="qcurve" smooth="yes"/>
      <point x="510" y="148" type="line" smooth="yes"/>
      <point x="510" y="0"/>
      <point x="362" y="0" type="qcurve" smooth="yes"/>
      <point x="116" y="0" type="line"/>
    </contour>
  </outline>
</glyph>
<glyph name="four" format="2">
  <advance width="578"/>
  <unicode hex="0034"/>
  <outline>
    <contour>
      <point x="68" y="137" type="line"/>
      <point x="68" y="193" type="line"/>
      <point x="305" y="690" type="line"/>
      <point x="359" y="690" type="line"/>
      <point x="368" y="673" type="line"/>
      <point x="141" y="197" type="line"/>
      <point x="444" y="197" type="line"/>
      <point x="444" y="430" type="line"/>
      <point x="510" y="430" type="line"/>
      <point x="510" y="0" type="line"/>
      <point x="444" y="0" type="line"/>
      <point x="444" y="137" type="line"/>
    </contour>
  </outline>
</glyph>
<glyph name="five" format="2">
  <advance width="578"/>
  <unicode hex="0035"/>
  <outline>
    <contour>
      <point x="58" y="30" type="line"/>
      <point x="58" y="60" type="line"/>
      <point x="365" y="60" type="line" smooth="yes"/>
      <point x="444" y="60"/>
      <point x="444" y="139" type="qcurve" smooth="yes"/>
      <point x="444" y="265" type="line" smooth="yes"/>
      <point x="444" y="344"/>
      <point x="365" y="344" type="qcurve" smooth="yes"/>
      <point x="68" y="344" type="line"/>
      <point x="68" y="690" type="line"/>
      <point x="480" y="690" type="line"/>
      <point x="480" y="630" type="line"/>
      <point x="134" y="630" type="line"/>
      <point x="134" y="404" type="line"/>
      <point x="362" y="404" type="line" smooth="yes"/>
      <point x="510" y="404"/>
      <point x="510" y="256" type="qcurve" smooth="yes"/>
      <point x="510" y="148" type="line" smooth="yes"/>
      <point x="510" y="0"/>
      <point x="362" y="0" type="qcurve" smooth="yes"/>
      <point x="96" y="0" type="line"/>
    </contour>
  </outline>
</glyph>
<glyph name="six" format="2">
  <advance width="578"/>
  <unicode hex="0036"/>
  <outline>
    <contour>
      <point x="68" y="148" type="qcurve" smooth="yes"/>
      <point x="68" y="511" type="line" smooth="yes"/>
      <point x="68" y="690"/>
      <point x="246" y="690" type="qcurve" smooth="yes"/>
      <point x="432" y="690" type="line"/>
      <point x="470" y="660" type="line"/>
      <point x="470" y="630" type="line"/>
      <point x="242" y="630" type="line" smooth="yes"/>
      <point x="134" y="630"/>
      <point x="134" y="522" type="qcurve" smooth="yes"/>
      <point x="134" y="404" type="line"/>
      <point x="362" y="404" type="line" smooth="yes"/>
      <point x="510" y="404"/>
      <point x="510" y="256" type="qcurve" smooth="yes"/>
      <point x="510" y="148" type="line" smooth="yes"/>
      <point x="510" y="0"/>
      <point x="362" y="0" type="qcurve" smooth="yes"/>
      <point x="216" y="0" type="line" smooth="yes"/>
      <point x="68" y="0"/>
    </contour>
    <contour>
      <point x="134" y="139" type="line" smooth="yes"/>
      <point x="134" y="60"/>
      <point x="213" y="60" type="qcurve" smooth="yes"/>
      <point x="365" y="60" type="line" smooth="yes"/>
      <point x="444" y="60"/>
      <point x="444" y="139" type="qcurve" smooth="yes"/>
      <point x="444" y="265" type="line" smooth="yes"/>
      <point x="444" y="344"/>
      <point x="365" y="344" type="qcurve" smooth="yes"/>
      <point x="134" y="344" type="line"/>
    </contour>
  </outline>
</glyph>
<glyph name="eight" format="2">
  <advance width="578"/>
  <unicode hex="0038"/>
  <outline>
    <contour>
      <point x="68" y="148" type="qcurve" smooth="yes"/>
      <point x="68" y="266" type="line" smooth="yes"/>
      <point x="68" y="306"/>
      <point x="93" y="331" type="qcurve" smooth="yes"/>
      <point x="128" y="366" type="line"/>
      <point x="93" y="401" type="line" smooth="yes"/>
      <point x="68" y="426"/>
      <point x="68" y="466" type="qcurve" smooth="yes"/>
      <point x="68" y="542" type="line" smooth="yes"/>
      <point x="68" y="690"/>
      <point x="216" y="690" type="qcurve" smooth="yes"/>
      <point x="362" y="690" type="line" smooth="yes"/>
      <point x="510" y="690"/>
      <point x="510" y="542" type="qcurve" smooth="yes"/>
      <point x="510" y="466" type="line" smooth="yes"/>
      <point x="510" y="426"/>
      <point x="485" y="401" type="qcurve" smooth="yes"/>
      <point x="450" y="366" type="line"/>
      <point x="485" y="331" type="line" smooth="yes"/>
      <point x="510" y="306"/>
      <point x="510" y="266" type="qcurve" smooth="yes"/>
      <point x="510" y="148" type="line" smooth="yes"/>
      <point x="510" y="0"/>
      <point x="362" y="0" type="qcurve" smooth="yes"/>
      <point x="216" y="0" type="line" smooth="yes"/>
      <point x="68" y="0"/>
    </contour>
    <contour>
      <point x="134" y="139" type="line" smooth="yes"/>
      <point x="134" y="60"/>
      <point x="213" y="60" type="qcurve" smooth="yes"/>
      <point x="365" y="60" type="line" smooth="yes"/>
      <point x="444" y="60"/>
      <point x="444" y="139" type="qcurve" smooth="yes"/>
      <point x="444" y="255" type="line" smooth="yes"/>
      <point x="444" y="334"/>
      <point x="365" y="334" type="qcurve" smooth="yes"/>
      <point x="213" y="334" type="line" smooth="yes"/>
      <point x="134" y="334"/>
      <point x="134" y="255" type="qcurve" smooth="yes"/>
    </contour>
    <contour>
      <point x="134" y="473" type="line" smooth="yes"/>
      <point x="134" y="394"/>
      <point x="213" y="394" type="qcurve" smooth="yes"/>
      <point x="365" y="394" type="line" smooth="yes"/>
      <point x="444" y="394"/>
      <point x="444" y="473" type="qcurve" smooth="yes"/>
      <point x="444" y="551" type="line" smooth="yes"/>
      <point x="444" y="630"/>
      <point x="365" y="630" type="qcurve" smooth="yes"/>
      <point x="213" y="630" type="line" smooth="yes"/>
      <point x="134" y="630"/>
      <point x="134" y="551" type="qcurve" smooth="yes"/>
    </contour>
  </outline>
</glyph>
<glyph name="less" format="2">
  <advance width="578"/>
  <unicode hex="003C"/>
  <outline>
    <contour>
      <point x="64" y="304" type="line"/>
      <point x="64" y="366" type="line"/>
      <point x="487" y="569" type="line"/>
      <point x="511" y="518" type="line"/>
      <point x="120" y="335" type="line"/>
      <point x="511" y="152" type="line"/>
      <point x="487" y="101" type="line"/>
    </contour>
  </outline>
</glyph>
<glyph name="equal" format="2">
  <advance width="578"/>
  <unicode hex="003D"/>
  <outline>
    <contour>
      <point x="65" y="197" type="line"/>
      <point x="65" y="253" type="line"/>
      <point x="513" y="253" type="line"/>
      <point x="513" y="197" type="line"/>
    </contour>
    <contour>
      <point x="65" y="417" type="line"/>
      <point x="65" y="473" type="line"/>
      <point x="513" y="473" type="line"/>
      <point x="513" y="417" type="line"/>
    </contour>
  </outline>
</glyph>
<glyph name="greater" format="2">
  <advance width="578"/>
  <unicode hex="003E"/>
  <outline>
    <contour>
      <point x="67" y="152" type="line"/>
      <point x="458" y="335" type="line"/>
      <point x="67" y="518" type="line"/>
      <point x="91" y="569" type="line"/>
      <point x="514" y="366" type="line"/>
      <point x="514" y="304" type="line"/>
      <point x="91" y="101" type="line"/>
    </contour>
  </outline>
</glyph>
<glyph name="at" format="2">
  <advance width="798"/>
  <unicode hex="0040"/>
  <outline>
    <contour>
      <point x="92" y="4" type="qcurve" smooth="yes"/>
      <point x="92" y="546" type="line" smooth="yes"/>
      <point x="92" y="690"/>
      <point x="237" y="690" type="qcurve" smooth="yes"/>
      <point x="705" y="690" type="line"/>
      <point x="705" y="60" type="line"/>
      <point x="459" y="60" type="line" smooth="yes"/>
      <point x="312" y="60"/>
      <point x="312" y="206" type="qcurve" smooth="yes"/>
      <point x="312" y="344" type="line" smooth="yes"/>
      <point x="312" y="490"/>
      <point x="459" y="490" type="qcurve" smooth="yes"/>
      <point x="646" y="490" type="line"/>
      <point x="646" y="639" type="line"/>
      <point x="236" y="639" type="line" smooth="yes"/>
      <point x="151" y="639"/>
      <point x="151" y="555" type="qcurve" smooth="yes"/>
      <point x="151" y="-5" type="line" smooth="yes"/>
      <point x="151" y="-89"/>
      <point x="236" y="-89" type="qcurve" smooth="yes"/>
      <point x="685" y="-89" type="line"/>
      <point x="685" y="-114" type="line"/>
      <point x="651" y="-140" type="line"/>
      <point x="237" y="-140" type="line" smooth="yes"/>
      <point x="92" y="-140"/>
    </contour>
    <contour>
      <point x="375" y="196" type="line" smooth="yes"/>
      <point x="375" y="115"/>
      <point x="456" y="115" type="qcurve" smooth="yes"/>
      <point x="643" y="115" type="line"/>
      <point x="643" y="435" type="line"/>
      <point x="456" y="435" type="line" smooth="yes"/>
      <point x="375" y="435"/>
      <point x="375" y="354" type="qcurve" smooth="yes"/>
    </contour>
  </outline>
</glyph>
<glyph name="C" format="2">
  <advance width="606"/>
  <unicode hex="0043"/>
  <outline>
    <contour>
      <point x="82" y="148" type="qcurve" smooth="yes"/>
      <point x="82" y="542" type="line" smooth="yes"/>
      <point x="82" y="690"/>
      <point x="231" y="690" type="qcurve" smooth="yes"/>
      <point x="517" y="690" type="line"/>
      <point x="556" y="660" type="line"/>
      <point x="556" y="630" type="line"/>
      <point x="228" y="630" type="line" smooth="yes"/>
      <point x="148" y="630"/>
      <point x="148" y="551" type="qcurve" smooth="yes"/>
      <point x="148" y="139" type="line" smooth="yes"/>
      <point x="148" y="60"/>
      <point x="228" y="60" type="qcurve" smooth="yes"/>
      <point x="556" y="60" type="line"/>
      <point x="556" y="30" type="line"/>
      <point x="517" y="0" type="line"/>
      <point x="231" y="0" type="line" smooth="yes"/>
      <point x="82" y="0"/>
    </contour>
  </outline>
</glyph>
<glyph name="D" format="2">
  <advance width="678"/>
  <unicode hex="0044"/>
  <outline>
    <contour>
      <point x="92" y="0" type="line"/>
      <point x="92" y="690" type="line"/>
      <point x="365" y="690" type="line" smooth="yes"/>
      <point x="605" y="690"/>
      <point x="605" y="450" type="qcurve" smooth="yes"/>
      <point x="605" y="240" type="line" smooth="yes"/>
      <point x="605" y="0"/>
      <point x="365" y="0" type="qcurve" smooth="yes"/>
    </contour>
    <contour>
      <point x="158" y="60" type="line"/>
      <point x="369" y="60" type="line" smooth="yes"/>
      <point x="539" y="60"/>
      <point x="539" y="230" type="qcurve" smooth="yes"/>
      <point x="539" y="460" type="line" smooth="yes"/>
      <point x="539" y="630"/>
      <point x="369" y="630" type="qcurve" smooth="yes"/>
      <point x="158" y="630" type="line"/>
    </contour>
  </outline>
</glyph>
<glyph name="F" format="2">
  <advance width="566"/>
  <unicode hex="0046"/>
  <outline>
    <contour>
      <point x="92" y="0" type="line"/>
      <point x="92" y="690" type="line"/>
      <point x="536" y="690" type="line"/>
      <point x="536" y="630" type="line"/>
      <point x="158" y="630" type="line"/>
      <point x="158" y="364" type="line"/>
      <point x="506" y="364" type="line"/>
      <point x="506" y="304" type="line"/>
      <point x="158" y="304" type="line"/>
      <point x="158" y="0" type="line"/>
    </contour>
  </outline>
</glyph>
<glyph name="G" format="2">
  <advance width="668"/>
  <unicode hex="0047"/>
  <outline>
    <contour>
      <point x="82" y="148" type="qcurve" smooth="yes"/>
      <point x="82" y="542" type="line" smooth="yes"/>
      <point x="82" y="690"/>
      <point x="231" y="690" type="qcurve" smooth="yes"/>
      <point x="537" y="690" type="line"/>
      <point x="575" y="660" type="line"/>
      <point x="575" y="630" type="line"/>
      <point x="228" y="630" type="line" smooth="yes"/>
      <point x="148" y="630"/>
      <point x="148" y="551" type="qcurve" smooth="yes"/>
      <point x="148" y="139" type="line" smooth="yes"/>
      <point x="148" y="60"/>
      <point x="228" y="60" type="qcurve" smooth="yes"/>
      <point x="529" y="60" type="line"/>
      <point x="529" y="334" type="line"/>
      <point x="348" y="334" type="line"/>
      <point x="348" y="394" type="line"/>
      <point x="595" y="394" type="line"/>
      <point x="595" y="0" type="line"/>
      <point x="231" y="0" type="line" smooth="yes"/>
      <point x="82" y="0"/>
    </contour>
  </outline>
</glyph>
<glyph name="H" format="2">
  <advance width="698"/>
  <unicode hex="0048"/>
  <outline>
    <contour>
      <point x="92" y="0" type="line"/>
      <point x="92" y="690" type="line"/>
      <point x="158" y="690" type="line"/>
      <point x="158" y="394" type="line"/>
      <point x="539" y="394" type="line"/>
      <point x="539" y="690" type="line"/>
      <point x="605" y="690" type="line"/>
      <point x="605" y="0" type="line"/>
      <point x="539" y="0" type="line"/>
      <point x="539" y="334" type="line"/>
      <point x="158" y="334" type="line"/>
      <point x="158" y="0" type="line"/>
    </contour>
  </outline>
</glyph>
<glyph name="K" format="2">
  <advance width="617"/>
  <unicode hex="004B"/>
  <outline>
    <contour>
      <point x="92" y="0" type="line"/>
      <point x="92" y="690" type="line"/>
      <point x="158" y="690" type="line"/>
      <point x="158" y="312" type="line"/>
      <point x="497" y="690" type="line"/>
      <point x="557" y="690" type="line"/>
      <point x="564" y="674" type="line"/>
      <point x="324" y="406" type="line"/>
      <point x="587" y="16" type="line"/>
      <point x="579" y="0" type="line"/>
      <point x="519" y="0" type="line"/>
      <point x="280" y="358" type="line"/>
      <point x="158" y="224" type="line"/>
      <point x="158" y="0" type="line"/>
    </contour>
  </outline>
</glyph>
<glyph name="O" format="2">
  <advance width="698"/>
  <unicode hex="004F"/>
  <outline>
    <contour>
      <point x="82" y="148" type="qcurve" smooth="yes"/>
      <point x="82" y="542" type="line" smooth="yes"/>
      <point x="82" y="690"/>
      <point x="231" y="690" type="qcurve" smooth="yes"/>
      <point x="467" y="690" type="line" smooth="yes"/>
      <point x="615" y="690"/>
      <point x="615" y="542" type="qcurve" smooth="yes"/>
      <point x="615" y="148" type="line" smooth="yes"/>
      <point x="615" y="0"/>
      <point x="467" y="0" type="qcurve" smooth="yes"/>
      <point x="231" y="0" type="line" smooth="yes"/>
      <point x="82" y="0"/>
    </contour>
    <contour>
      <point x="148" y="139" type="line" smooth="yes"/>
      <point x="148" y="60"/>
      <point x="228" y="60" type="qcurve" smooth="yes"/>
      <point x="470" y="60" type="line" smooth="yes"/>
      <point x="549" y="60"/>
      <point x="549" y="139" type="qcurve" smooth="yes"/>
      <point x="549" y="551" type="line" smooth="yes"/>
      <point x="549" y="630"/>
      <point x="470" y="630" type="qcurve" smooth="yes"/>
      <point x="228" y="630" type="line" smooth="yes"/>
      <point x="148" y="630"/>
      <point x="148" y="551" type="qcurve" smooth="yes"/>
    </contour>
  </outline>
</glyph>
<glyph name="Q" format="2">
  <advance width="698"/>
  <unicode hex="0051"/>
  <outline>
    <contour>
      <point x="82" y="148" type="qcurve" smooth="yes"/>
      <point x="82" y="542" type="line" smooth="yes"/>
      <point x="82" y="690"/>
      <point x="231" y="690" type="qcurve" smooth="yes"/>
      <point x="467" y="690" type="line" smooth="yes"/>
      <point x="615" y="690"/>
      <point x="615" y="542" type="qcurve" smooth="yes"/>
      <point x="615" y="148" type="line" smooth="yes"/>
      <point x="615" y="7"/>
      <point x="480" y="0" type="qcurve"/>
      <point x="548" y="-133" type="line"/>
      <point x="538" y="-150" type="line"/>
      <point x="483" y="-150" type="line"/>
      <point x="407" y="0" type="line"/>
      <point x="231" y="0" type="line" smooth="yes"/>
      <point x="82" y="0"/>
    </contour>
    <contour>
      <point x="148" y="139" type="line" smooth="yes"/>
      <point x="148" y="60"/>
      <point x="228" y="60" type="qcurve" smooth="yes"/>
      <point x="470" y="60" type="line" smooth="yes"/>
      <point x="549" y="60"/>
      <point x="549" y="139" type="qcurve" smooth="yes"/>
      <point x="549" y="551" type="line" smooth="yes"/>
      <point x="549" y="630"/>
      <point x="470" y="630" type="qcurve" smooth="yes"/>
      <point x="228" y="630" type="line" smooth="yes"/>
      <point x="148" y="630"/>
      <point x="148" y="551" type="qcurve" smooth="yes"/>
    </contour>
  </outline>
</glyph>
<glyph name="U" format="2">
  <advance width="686"/>
  <unicode hex="0055"/>
  <outline>
    <contour>
      <point x="86" y="148" type="qcurve" smooth="yes"/>
      <point x="86" y="690" type="line"/>
      <point x="152" y="690" type="line"/>
      <point x="152" y="139" type="line" smooth="yes"/>
      <point x="152" y="60"/>
      <point x="232" y="60" type="qcurve" smooth="yes"/>
      <point x="454" y="60" type="line" smooth="yes"/>
      <point x="533" y="60"/>
      <point x="533" y="139" type="qcurve" smooth="yes"/>
      <point x="533" y="690" type="line"/>
      <point x="599" y="690" type="line"/>
      <point x="599" y="148" type="line" smooth="yes"/>
      <point x="599" y="0"/>
      <point x="451" y="0" type="qcurve" smooth="yes"/>
      <point x="235" y="0" type="line" smooth="yes"/>
      <point x="86" y="0"/>
    </contour>
  </outline>
</glyph>
<glyph name="W" format="2">
  <advance width="909"/>
  <unicode hex="0057"/>
  <outline>
    <contour>
      <point x="31" y="675" type="line"/>
      <point x="42" y="690" type="line"/>
      <point x="93" y="690" type="line"/>
      <point x="247" y="60" type="line"/>
      <point x="261" y="60" type="line"/>
      <point x="421" y="611" type="line"/>
      <point x="488" y="611" type="line"/>
      <point x="648" y="60" type="line"/>
      <point x="662" y="60" type="line"/>
      <point x="816" y="690" type="line"/>
      <point x="868" y="690" type="line"/>
      <point x="879" y="675" type="line"/>
      <point x="712" y="0" type="line"/>
      <point x="599" y="0" type="line"/>
      <point x="455" y="513" type="line"/>
      <point x="310" y="0" type="line"/>
      <point x="197" y="0" type="line"/>
    </contour>
  </outline>
</glyph>
<glyph name="X" format="2">
  <advance width="599"/>
  <unicode hex="0058"/>
  <outline>
    <contour>
      <point x="31" y="16" type="line"/>
      <point x="262" y="355" type="line"/>
      <point x="44" y="674" type="line"/>
      <point x="51" y="690" type="line"/>
      <point x="108" y="690" type="line"/>
      <point x="300" y="405" type="line"/>
      <point x="491" y="690" type="line"/>
      <point x="548" y="690" type="line"/>
      <point x="556" y="674" type="line"/>
      <point x="337" y="355" type="line"/>
      <point x="569" y="16" type="line"/>
      <point x="561" y="0" type="line"/>
      <point x="504" y="0" type="line"/>
      <point x="300" y="305" type="line"/>
      <point x="95" y="0" type="line"/>
      <point x="38" y="0" type="line"/>
    </contour>
  </outline>
</glyph>
<glyph name="bracketleft" format="2">
  <advance width="327"/>
  <unicode hex="005B"/>
  <outline>
    <contour>
      <point x="92" y="-180" type="line"/>
      <point x="92" y="760" type="line"/>
      <point x="297" y="760" type="line"/>
      <point x="297" y="705" type="line"/>
      <point x="155" y="705" type="line"/>
      <point x="155" y="-125" type="line"/>
      <point x="297" y="-125" type="line"/>
      <point x="297" y="-180" type="line"/>
    </contour>
  </outline>
</glyph>
<glyph name="c" format="2">
  <advance width="500"/>
  <unicode hex="0063"/>
  <outline>
    <contour>
      <point x="74" y="146" type="qcurve" smooth="yes"/>
      <point x="74" y="371" type="line" smooth="yes"/>
      <point x="74" y="518"/>
      <point x="221" y="518" type="qcurve" smooth="yes"/>
      <point x="420" y="518" type="line"/>
      <point x="454" y="492" type="line"/>
      <point x="454" y="463" type="line"/>
      <point x="218" y="463" type="line" smooth="yes"/>
      <point x="137" y="463"/>
      <point x="137" y="381" type="qcurve" smooth="yes"/>
      <point x="137" y="136" type="line" smooth="yes"/>
      <point x="137" y="55"/>
      <point x="218" y="55" type="qcurve" smooth="yes"/>
      <point x="454" y="55" type="line"/>
      <point x="454" y="26" type="line"/>
      <point x="420" y="0" type="line"/>
      <point x="221" y="0" type="line" smooth="yes"/>
      <point x="74" y="0"/>
    </contour>
  </outline>
</glyph>
<glyph name="d" format="2">
  <advance width="580"/>
  <unicode hex="0064"/>
  <outline>
    <contour>
      <point x="74" y="146" type="qcurve" smooth="yes"/>
      <point x="74" y="371" type="line" smooth="yes"/>
      <point x="74" y="518"/>
      <point x="221" y="518" type="qcurve" smooth="yes"/>
      <point x="435" y="518" type="line"/>
      <point x="435" y="740" type="line"/>
      <point x="497" y="740" type="line"/>
      <point x="497" y="0" type="line"/>
      <point x="221" y="0" type="line" smooth="yes"/>
      <point x="74" y="0"/>
    </contour>
    <contour>
      <point x="137" y="136" type="line" smooth="yes"/>
      <point x="137" y="55"/>
      <point x="218" y="55" type="qcurve" smooth="yes"/>
      <point x="435" y="55" type="line"/>
      <point x="435" y="463" type="line"/>
      <point x="218" y="463" type="line" smooth="yes"/>
      <point x="137" y="463"/>
      <point x="137" y="381" type="qcurve" smooth="yes"/>
    </contour>
  </outline>
</glyph>
<glyph name="g" format="2">
  <advance width="582"/>
  <unicode hex="0067"/>
  <outline>
    <contour>
      <point x="76" y="146" type="qcurve" smooth="yes"/>
      <point x="76" y="371" type="line" smooth="yes"/>
      <point x="76" y="518"/>
      <point x="222" y="518" type="qcurve" smooth="yes"/>
      <point x="498" y="518" type="line"/>
      <point x="498" y="-54" type="line" smooth="yes"/>
      <point x="498" y="-200"/>
      <point x="352" y="-200" type="qcurve" smooth="yes"/>
      <point x="148" y="-200" type="line"/>
      <point x="114" y="-174" type="line"/>
      <point x="114" y="-145" type="line"/>
      <point x="354" y="-145" type="line" smooth="yes"/>
      <point x="436" y="-145"/>
      <point x="436" y="-64" type="qcurve" smooth="yes"/>
      <point x="436" y="0" type="line"/>
      <point x="222" y="0" type="line" smooth="yes"/>
      <point x="76" y="0"/>
    </contour>
    <contour>
      <point x="138" y="136" type="line" smooth="yes"/>
      <point x="138" y="55"/>
      <point x="220" y="55" type="qcurve" smooth="yes"/>
      <point x="436" y="55" type="line"/>
      <point x="436" y="463" type="line"/>
      <point x="220" y="463" type="line" smooth="yes"/>
      <point x="138" y="463"/>
      <point x="138" y="381" type="qcurve" smooth="yes"/>
    </contour>
  </outline>
</glyph>
<glyph name="i" format="2">
  <advance width="227"/>
  <unicode hex="0069"/>
  <outline>
    <contour>
      <point x="79" y="614" type="line"/>
      <point x="79" y="694" type="line"/>
      <point x="148" y="694" type="line"/>
      <point x="148" y="614" type="line"/>
    </contour>
    <contour>
      <point x="82" y="0" type="line"/>
      <point x="82" y="518" type="line"/>
      <point x="145" y="518" type="line"/>
      <point x="145" y="0" type="line"/>
    </contour>
  </outline>
</glyph>
<glyph name="j" format="2">
  <advance width="227"/>
  <unicode hex="006A"/>
  <outline>
    <contour>
      <point x="-7" y="-152" type="line"/>
      <point x="82" y="-148"/>
      <point x="82" y="-60" type="qcurve" smooth="yes"/>
      <point x="82" y="518" type="line"/>
      <point x="145" y="518" type="line"/>
      <point x="145" y="-55" type="line" smooth="yes"/>
      <point x="145" y="-207"/>
      <point x="-7" y="-207" type="qcurve"/>
    </contour>
    <contour>
      <point x="79" y="614" type="line"/>
      <point x="79" y="694" type="line"/>
      <point x="148" y="694" type="line"/>
      <point x="148" y="614" type="line"/>
    </contour>
  </outline>
</glyph>
<glyph name="l" format="2">
  <advance width="245"/>
  <unicode hex="006C"/>
  <outline>
    <contour>
      <point x="78" y="127" type="qcurve" smooth="yes"/>
      <point x="78" y="740" type="line"/>
      <point x="141" y="740" type="line"/>
      <point x="141" y="121" type="line" smooth="yes"/>
      <point x="141" y="51"/>
      <point x="212" y="48" type="qcurve"/>
      <point x="212" y="-7" type="line"/>
      <point x="78" y="-7"/>
    </contour>
  </outline>
</glyph>
<glyph name="n" format="2">
  <advance width="584"/>
  <unicode hex="006E"/>
  <outline>
    <contour>
      <point x="82" y="0" type="line"/>
      <point x="82" y="518" type="line"/>
      <point x="359" y="518" type="line" smooth="yes"/>
      <point x="505" y="518"/>
      <point x="505" y="371" type="qcurve" smooth="yes"/>
      <point x="505" y="0" type="line"/>
      <point x="443" y="0" type="line"/>
      <point x="443" y="381" type="line" smooth="yes"/>
      <point x="443" y="463"/>
      <point x="361" y="463" type="qcurve" smooth="yes"/>
      <point x="145" y="463" type="line"/>
      <point x="145" y="0" type="line"/>
    </contour>
  </outline>
</glyph>
<glyph name="t" format="2">
  <advance width="382"/>
  <unicode hex="0074"/>
  <outline>
    <contour>
      <point x="78" y="146" type="qcurve" smooth="yes"/>
      <point x="78" y="690" type="line"/>
      <point x="141" y="690" type="line"/>
      <point x="141" y="518" type="line"/>
      <point x="336" y="518" type="line"/>
      <point x="336" y="463" type="line"/>
      <point x="141" y="463" type="line"/>
      <point x="141" y="136" type="line" smooth="yes"/>
      <point x="141" y="55"/>
      <point x="222" y="55" type="qcurve" smooth="yes"/>
      <point x="346" y="55" type="line"/>
      <point x="346" y="26" type="line"/>
      <point x="312" y="0" type="line"/>
      <point x="225" y="0" type="line" smooth="yes"/>
      <point x="78" y="0"/>
    </contour>
  </outline>
</glyph>
<glyph name="u" format="2">
  <advance width="584"/>
  <unicode hex="0075"/>
  <outline>
    <contour>
      <point x="78" y="146" type="qcurve" smooth="yes"/>
      <point x="78" y="518" type="line"/>
      <point x="141" y="518" type="line"/>
      <point x="141" y="136" type="line" smooth="yes"/>
      <point x="141" y="55"/>
      <point x="222" y="55" type="qcurve" smooth="yes"/>
      <point x="439" y="55" type="line"/>
      <point x="439" y="518" type="line"/>
      <point x="501" y="518" type="line"/>
      <point x="501" y="0" type="line"/>
      <point x="225" y="0" type="line" smooth="yes"/>
      <point x="78" y="0"/>
    </contour>
  </outline>
</glyph>
<glyph name="x" format="2">
  <advance width="509"/>
  <unicode hex="0078"/>
  <outline>
    <contour>
      <point x="31" y="13" type="line"/>
      <point x="218" y="264" type="line"/>
      <point x="38" y="505" type="line"/>
      <point x="44" y="518" type="line"/>
      <point x="102" y="518" type="line"/>
      <point x="255" y="309" type="line"/>
      <point x="407" y="518" type="line"/>
      <point x="465" y="518" type="line"/>
      <point x="471" y="505" type="line"/>
      <point x="291" y="264" type="line"/>
      <point x="479" y="13" type="line"/>
      <point x="473" y="0" type="line"/>
      <point x="415" y="0" type="line"/>
      <point x="255" y="220" type="line"/>
      <point x="94" y="0" type="line"/>
      <point x="36" y="0" type="line"/>
    </contour>
  </outline>
</glyph>
<glyph name="braceleft" format="2">
  <advance width="368"/>
  <unicode hex="007B"/>
  <outline>
    <contour>
      <point x="50" y="276" type="line"/>
      <point x="50" y="307" type="line"/>
      <point x="143" y="400" type="line"/>
      <point x="143" y="614" type="line" smooth="yes"/>
      <point x="143" y="760"/>
      <point x="289" y="760" type="qcurve" smooth="yes"/>
      <point x="338" y="760" type="line"/>
      <point x="338" y="705" type="line"/>
      <point x="287" y="705" type="line" smooth="yes"/>
      <point x="206" y="705"/>
      <point x="206" y="624" type="qcurve" smooth="yes"/>
      <point x="206" y="384" type="line"/>
      <point x="112" y="292" type="line"/>
      <point x="206" y="199" type="line"/>
      <point x="206" y="-44" type="line" smooth="yes"/>
      <point x="206" y="-125"/>
      <point x="287" y="-125" type="qcurve" smooth="yes"/>
      <point x="338" y="-125" type="line"/>
      <point x="338" y="-180" type="line"/>
      <point x="289" y="-180" type="line" smooth="yes"/>
      <point x="143" y="-180"/>
      <point x="143" y="-34" type="qcurve" smooth="yes"/>
      <point x="143" y="183" type="line"/>
    </contour>
  </outline>
</glyph>
<glyph name="bar" format="2">
  <advance width="263"/>
  <unicode hex="007C"/>
  <outline>
    <contour>
      <point x="102" y="-200" type="line"/>
      <point x="102" y="740" type="line"/>
      <point x="161" y="740" type="line"/>
      <point x="161" y="-200" type="line"/>
    </contour>
  </outline>
</glyph>
<glyph name="cent" format="2">
  <advance width="578"/>
  <unicode hex="00A2"/>
  <outline>
    <contour>
      <point x="98" y="146" type="qcurve" smooth="yes"/>
      <point x="98" y="371" type="line" smooth="yes"/>
      <point x="98" y="518"/>
      <point x="244" y="518" type="qcurve" smooth="yes"/>
      <point x="290" y="518" type="line"/>
      <point x="290" y="628" type="line"/>
      <point x="342" y="628" type="line"/>
      <point x="342" y="518" type="line"/>
      <point x="443" y="518" type="line"/>
      <point x="477" y="492" type="line"/>
      <point x="477" y="463" type="line"/>
      <point x="242" y="463" type="line" smooth="yes"/>
      <point x="160" y="463"/>
      <point x="160" y="381" type="qcurve" smooth="yes"/>
      <point x="160" y="136" type="line" smooth="yes"/>
      <point x="160" y="55"/>
      <point x="242" y="55" type="qcurve" smooth="yes"/>
      <point x="477" y="55" type="line"/>
      <point x="477" y="26" type="line"/>
      <point x="443" y="0" type="line"/>
      <point x="342" y="0" type="line"/>
      <point x="342" y="-110" type="line"/>
      <point x="290" y="-110" type="line"/>
      <point x="290" y="0" type="line"/>
      <point x="244" y="0" type="line" smooth="yes"/>
      <point x="98" y="0"/>
    </contour>
  </outline>
</glyph>
<glyph name="copyright" format="2">
  <advance width="839"/>
  <unicode hex="00A9"/>
  <outline>
    <contour>
      <point x="82" y="93" type="qcurve" smooth="yes"/>
      <point x="82" y="597" type="line" smooth="yes"/>
      <point x="82" y="690"/>
      <point x="175" y="690" type="qcurve" smooth="yes"/>
      <point x="664" y="690" type="line" smooth="yes"/>
      <point x="756" y="690"/>
      <point x="756" y="597" type="qcurve" smooth="yes"/>
      <point x="756" y="93" type="line" smooth="yes"/>
      <point x="756" y="0"/>
      <point x="664" y="0" type="qcurve" smooth="yes"/>
      <point x="175" y="0" type="line" smooth="yes"/>
      <point x="82" y="0"/>
    </contour>
    <contour>
      <point x="130" y="84" type="line" smooth="yes"/>
      <point x="130" y="43"/>
      <point x="171" y="43" type="qcurve" smooth="yes"/>
      <point x="668" y="43" type="line" smooth="yes"/>
      <point x="709" y="43"/>
      <point x="709" y="84" type="qcurve" smooth="yes"/>
      <point x="709" y="606" type="line" smooth="yes"/>
      <point x="709" y="647"/>
      <point x="668" y="647" type="qcurve" smooth="yes"/>
      <point x="171" y="647" type="line" smooth="yes"/>
      <point x="130" y="647"/>
      <point x="130" y="606" type="qcurve" smooth="yes"/>
    </contour>
    <contour>
      <point x="261" y="241" type="qcurve" smooth="yes"/>
      <point x="261" y="449" type="line" smooth="yes"/>
      <point x="261" y="542"/>
      <point x="354" y="542" type="qcurve" smooth="yes"/>
      <point x="520" y="542" type="line"/>
      <point x="548" y="521" type="line"/>
      <point x="548" y="496" type="line"/>
      <point x="350" y="496" type="line" smooth="yes"/>
      <point x="312" y="496"/>
      <point x="312" y="458" type="qcurve" smooth="yes"/>
      <point x="312" y="232" type="line" smooth="yes"/>
      <point x="312" y="194"/>
      <point x="350" y="194" type="qcurve" smooth="yes"/>
      <point x="548" y="194" type="line"/>
      <point x="548" y="169" type="line"/>
      <point x="520" y="148" type="line"/>
      <point x="354" y="148" type="line" smooth="yes"/>
      <point x="261" y="148"/>
    </contour>
  </outline>
</glyph>
<glyph name="registered" format="2">
  <advance width="839"/>
  <unicode hex="00AE"/>
  <outline>
    <contour>
      <point x="82" y="93" type="qcurve" smooth="yes"/>
      <point x="82" y="597" type="line" smooth="yes"/>
      <point x="82" y="690"/>
      <point x="175" y="690" type="qcurve" smooth="yes"/>
      <point x="664" y="690" type="line" smooth="yes"/>
      <point x="756" y="690"/>
      <point x="756" y="597" type="qcurve" smooth="yes"/>
      <point x="756" y="93" type="line" smooth="yes"/>
      <point x="756" y="0"/>
      <point x="664" y="0" type="qcurve" smooth="yes"/>
      <point x="175" y="0" type="line" smooth="yes"/>
      <point x="82" y="0"/>
    </contour>
    <contour>
      <point x="130" y="84" type="line" smooth="yes"/>
      <point x="130" y="43"/>
      <point x="171" y="43" type="qcurve" smooth="yes"/>
      <point x="668" y="43" type="line" smooth="yes"/>
      <point x="709" y="43"/>
      <point x="709" y="84" type="qcurve" smooth="yes"/>
      <point x="709" y="606" type="line" smooth="yes"/>
      <point x="709" y="647"/>
      <point x="668" y="647" type="qcurve" smooth="yes"/>
      <point x="171" y="647" type="line" smooth="yes"/>
      <point x="130" y="647"/>
      <point x="130" y="606" type="qcurve" smooth="yes"/>
    </contour>
    <contour>
      <point x="281" y="148" type="line"/>
      <point x="281" y="542" type="line"/>
      <point x="472" y="542" type="line" smooth="yes"/>
      <point x="565" y="542"/>
      <point x="565" y="449" type="qcurve" smooth="yes"/>
      <point x="565" y="396" type="line" smooth="yes"/>
      <point x="565" y="319"/>
      <point x="503" y="306" type="qcurve"/>
      <point x="577" y="160" type="line"/>
      <point x="570" y="148" type="line"/>
      <point x="528" y="148" type="line"/>
      <point x="449" y="302" type="line"/>
      <point x="332" y="302" type="line"/>
      <point x="332" y="148" type="line"/>
    </contour>
    <contour>
      <point x="332" y="348" type="line"/>
      <point x="476" y="348" type="line" smooth="yes"/>
      <point x="514" y="348"/>
      <point x="514" y="386" type="qcurve" smooth="yes"/>
      <point x="514" y="458" type="line" smooth="yes"/>
      <point x="514" y="496"/>
      <point x="476" y="496" type="qcurve" smooth="yes"/>
      <point x="332" y="496" type="line"/>
    </contour>
  </outline>
</glyph>
<glyph name="uni00B3" format="2">
  <advance width="358"/>
  <unicode hex="00B3"/>
  <outline>
    <contour>
      <point x="48" y="303" type="line"/>
      <point x="48" y="328" type="line"/>
      <point x="228" y="328" type="line" smooth="yes"/>
      <point x="266" y="328"/>
      <point x="266" y="366" type="qcurve" smooth="yes"/>
      <point x="266" y="432" type="line" smooth="yes"/>
      <point x="266" y="470"/>
      <point x="228" y="470" type="qcurve" smooth="yes"/>
      <point x="92" y="470" type="line"/>
      <point x="92" y="516" type="line"/>
      <point x="228" y="516" type="line" smooth="yes"/>
      <point x="266" y="516"/>
      <point x="266" y="554" type="qcurve" smooth="yes"/>
      <point x="266" y="606" type="line" smooth="yes"/>
      <point x="266" y="644"/>
      <point x="228" y="644" type="qcurve" smooth="yes"/>
      <point x="54" y="644" type="line"/>
      <point x="54" y="669" type="line"/>
      <point x="81" y="690" type="line"/>
      <point x="223" y="690" type="line" smooth="yes"/>
      <point x="316" y="690"/>
      <point x="316" y="597" type="qcurve" smooth="yes"/>
      <point x="316" y="562" type="line" smooth="yes"/>
      <point x="316" y="535"/>
      <point x="299" y="518" type="qcurve" smooth="yes"/>
      <point x="276" y="495" type="line"/>
      <point x="299" y="472" type="line" smooth="yes"/>
      <point x="316" y="455"/>
      <point x="316" y="428" type="qcurve" smooth="yes"/>
      <point x="316" y="375" type="line" smooth="yes"/>
      <point x="316" y="282"/>
      <point x="223" y="282" type="qcurve" smooth="yes"/>
      <point x="75" y="282" type="line"/>
    </contour>
  </outline>
</glyph>
<glyph name="mu" format="2">
  <advance width="584"/>
  <unicode hex="00B5"/>
  <outline>
    <contour>
      <point x="82" y="-200" type="line"/>
      <point x="82" y="518" type="line"/>
      <point x="145" y="518" type="line"/>
      <point x="145" y="55" type="line"/>
      <point x="361" y="55" type="line" smooth="yes"/>
      <point x="443" y="55"/>
      <point x="443" y="136" type="qcurve" smooth="yes"/>
      <point x="443" y="518" type="line"/>
      <point x="505" y="518" type="line"/>
      <point x="505" y="146" type="line" smooth="yes"/>
      <point x="505" y="0"/>
      <point x="359" y="0" type="qcurve" smooth="yes"/>
      <point x="145" y="0" type="line"/>
      <point x="145" y="-200" type="line"/>
    </contour>
  </outline>
</glyph>
<glyph name="uni00B9" format="2">
  <advance width="358"/>
  <unicode hex="00B9"/>
  <outline>
    <contour>
      <point x="60" y="282" type="line"/>
      <point x="60" y="328" type="line"/>
      <point x="165" y="328" type="line"/>
      <point x="165" y="644" type="line"/>
      <point x="83" y="644" type="line"/>
      <point x="83" y="669" type="line"/>
      <point x="110" y="690" type="line"/>
      <point x="216" y="690" type="line"/>
      <point x="216" y="328" type="line"/>
      <point x="310" y="328" type="line"/>
      <point x="310" y="282" type="line"/>
    </contour>
  </outline>
</glyph>
<glyph name="ordmasculine" format="2">
  <advance width="429"/>
  <unicode hex="00BA"/>
  <outline>
    <contour>
      <point x="52" y="395" type="qcurve" smooth="yes"/>
      <point x="52" y="597" type="line" smooth="yes"/>
      <point x="52" y="690"/>
      <point x="145" y="690" type="qcurve" smooth="yes"/>
      <point x="284" y="690" type="line" smooth="yes"/>
      <point x="377" y="690"/>
      <point x="377" y="597" type="qcurve" smooth="yes"/>
      <point x="377" y="395" type="line" smooth="yes"/>
      <point x="377" y="301"/>
      <point x="284" y="301" type="qcurve" smooth="yes"/>
      <point x="145" y="301" type="line" smooth="yes"/>
      <point x="52" y="301"/>
    </contour>
    <contour>
      <point x="103" y="385" type="line" smooth="yes"/>
      <point x="103" y="347"/>
      <point x="141" y="347" type="qcurve" smooth="yes"/>
      <point x="288" y="347" type="line" smooth="yes"/>
      <point x="326" y="347"/>
      <point x="326" y="385" type="qcurve" smooth="yes"/>
      <point x="326" y="606" type="line" smooth="yes"/>
      <point x="326" y="644"/>
      <point x="288" y="644" type="qcurve" smooth="yes"/>
      <point x="141" y="644" type="line" smooth="yes"/>
      <point x="103" y="644"/>
      <point x="103" y="606" type="qcurve" smooth="yes"/>
    </contour>
  </outline>
</glyph>
<glyph name="AE" format="2">
  <advance width="879"/>
  <unicode hex="00C6"/>
  <outline>
    <contour>
      <point x="21" y="15" type="line"/>
      <point x="253" y="690" type="line"/>
      <point x="829" y="690" type="line"/>
      <point x="829" y="630" type="line"/>
      <point x="487" y="630" type="line"/>
      <point x="487" y="394" type="line"/>
      <point x="799" y="394" type="line"/>
      <point x="799" y="334" type="line"/>
      <point x="487" y="334" type="line"/>
      <point x="487" y="60" type="line"/>
      <point x="829" y="60" type="line"/>
      <point x="829" y="0" type="line"/>
      <point x="421" y="0" type="line"/>
      <point x="421" y="184" type="line"/>
      <point x="146" y="184" type="line"/>
      <point x="84" y="0" type="line"/>
      <point x="31" y="0" type="line"/>
    </contour>
    <contour>
      <point x="167" y="244" type="line"/>
      <point x="421" y="244" type="line"/>
      <point x="421" y="630" type="line"/>
      <point x="296" y="630" type="line"/>
    </contour>
  </outline>
</glyph>
<glyph name="Oslash" format="2">
  <advance width="698"/>
  <unicode hex="00D8"/>
  <outline>
    <contour>
      <point x="82" y="148" type="qcurve" smooth="yes"/>
      <point x="82" y="542" type="line" smooth="yes"/>
      <point x="82" y="690"/>
      <point x="231" y="690" type="qcurve" smooth="yes"/>
      <point x="467" y="690" type="line" smooth="yes"/>
      <point x="615" y="690"/>
      <point x="615" y="542" type="qcurve" smooth="yes"/>
      <point x="615" y="148" type="line" smooth="yes"/>
      <point x="615" y="0"/>
      <point x="467" y="0" type="qcurve" smooth="yes"/>
      <point x="231" y="0" type="line" smooth="yes"/>
      <point x="82" y="0"/>
    </contour>
    <contour>
      <point x="148" y="201" type="line"/>
      <point x="548" y="560" type="line"/>
      <point x="544" y="630"/>
      <point x="470" y="630" type="qcurve" smooth="yes"/>
      <point x="228" y="630" type="line" smooth="yes"/>
      <point x="148" y="630"/>
      <point x="148" y="551" type="qcurve" smooth="yes"/>
    </contour>
    <contour>
      <point x="149" y="130" type="line"/>
      <point x="154" y="60"/>
      <point x="228" y="60" type="qcurve" smooth="yes"/>
      <point x="470" y="60" type="line" smooth="yes"/>
      <point x="549" y="60"/>
      <point x="549" y="139" type="qcurve" smooth="yes"/>
      <point x="549" y="489" type="line"/>
    </contour>
  </outline>
</glyph>
<glyph name="germandbls" format="2">
  <advance width="597"/>
  <unicode hex="00DF"/>
  <outline>
    <contour>
      <point x="82" y="0" type="line"/>
      <point x="82" y="594" type="line" smooth="yes"/>
      <point x="82" y="740"/>
      <point x="229" y="740" type="qcurve" smooth="yes"/>
      <point x="356" y="740" type="line" smooth="yes"/>
      <point x="502" y="740"/>
      <point x="502" y="594" type="qcurve" smooth="yes"/>
      <point x="502" y="491" type="line" smooth="yes"/>
      <point x="502" y="457"/>
      <point x="482" y="433" type="qcurve" smooth="yes"/>
      <point x="447" y="391" type="line"/>
      <point x="489" y="356" type="line" smooth="yes"/>
      <point x="522" y="328"/>
      <point x="522" y="276" type="qcurve" smooth="yes"/>
      <point x="522" y="146" type="line" smooth="yes"/>
      <point x="522" y="0"/>
      <point x="376" y="0" type="qcurve" smooth="yes"/>
      <point x="277" y="0" type="line"/>
      <point x="243" y="26" type="line"/>
      <point x="243" y="55" type="line"/>
      <point x="378" y="55" type="line" smooth="yes"/>
      <point x="460" y="55"/>
      <point x="460" y="136" type="qcurve" smooth="yes"/>
      <point x="460" y="276" type="line" smooth="yes"/>
      <point x="460" y="358"/>
      <point x="378" y="358" type="qcurve" smooth="yes"/>
      <point x="253" y="358" type="line"/>
      <point x="253" y="412" type="line"/>
      <point x="358" y="412" type="line" smooth="yes"/>
      <point x="440" y="412"/>
      <point x="440" y="494" type="qcurve" smooth="yes"/>
      <point x="440" y="604" type="line" smooth="yes"/>
      <point x="440" y="685"/>
      <point x="358" y="685" type="qcurve" smooth="yes"/>
      <point x="226" y="685" type="line" smooth="yes"/>
      <point x="145" y="685"/>
      <point x="145" y="604" type="qcurve" smooth="yes"/>
      <point x="145" y="0" type="line"/>
    </contour>
  </outline>
</glyph>
<glyph name="ae" format="2">
  <advance width="878"/>
  <unicode hex="00E6"/>
  <outline>
    <contour>
      <point x="202" y="0" type="line" smooth="yes"/>
      <point x="54" y="0"/>
      <point x="54" y="296"/>
      <point x="202" y="296" type="qcurve" smooth="yes"/>
      <point x="393" y="296" type="line"/>
      <point x="393" y="381" type="line" smooth="yes"/>
      <point x="393" y="463"/>
      <point x="312" y="463" type="qcurve" smooth="yes"/>
      <point x="103" y="463" type="line"/>
      <point x="103" y="492" type="line"/>
      <point x="137" y="518" type="line"/>
      <point x="310" y="518" type="line" smooth="yes"/>
      <point x="387" y="518"/>
      <point x="425" y="476" type="qcurve"/>
      <point x="463" y="518"/>
      <point x="539" y="518" type="qcurve" smooth="yes"/>
      <point x="657" y="518" type="line" smooth="yes"/>
      <point x="803" y="518"/>
      <point x="803" y="371" type="qcurve" smooth="yes"/>
      <point x="803" y="232" type="line"/>
      <point x="456" y="232" type="line"/>
      <point x="456" y="136" type="line" smooth="yes"/>
      <point x="456" y="55"/>
      <point x="537" y="55" type="qcurve" smooth="yes"/>
      <point x="783" y="55" type="line"/>
      <point x="783" y="26" type="line"/>
      <point x="749" y="0" type="line"/>
      <point x="539" y="0" type="line" smooth="yes"/>
      <point x="463" y="0"/>
      <point x="425" y="42" type="qcurve"/>
      <point x="387" y="0"/>
      <point x="310" y="0" type="qcurve" smooth="yes"/>
    </contour>
    <contour>
      <point x="117" y="136" type="line" smooth="yes"/>
      <point x="117" y="55"/>
      <point x="198" y="55" type="qcurve" smooth="yes"/>
      <point x="312" y="55" type="line" smooth="yes"/>
      <point x="393" y="55"/>
      <point x="393" y="136" type="qcurve" smooth="yes"/>
      <point x="393" y="241" type="line"/>
      <point x="198" y="241" type="line" smooth="yes"/>
      <point x="117" y="241"/>
      <point x="117" y="159" type="qcurve" smooth="yes"/>
    </contour>
    <contour>
      <point x="456" y="287" type="line"/>
      <point x="741" y="287" type="line"/>
      <point x="741" y="381" type="line" smooth="yes"/>
      <point x="741" y="463"/>
      <point x="659" y="463" type="qcurve" smooth="yes"/>
      <point x="537" y="463" type="line" smooth="yes"/>
      <point x="456" y="463"/>
      <point x="456" y="381" type="qcurve" smooth="yes"/>
    </contour>
  </outline>
</glyph>
<glyph name="eth" format="2">
  <advance width="582"/>
  <unicode hex="00F0"/>
  <outline>
    <contour>
      <point x="74" y="146" type="qcurve" smooth="yes"/>
      <point x="74" y="304" type="line" smooth="yes"/>
      <point x="74" y="450"/>
      <point x="221" y="450" type="qcurve" smooth="yes"/>
      <point x="418" y="450" type="line"/>
      <point x="335" y="582" type="line"/>
      <point x="226" y="530" type="line"/>
      <point x="205" y="575" type="line"/>
      <point x="309" y="624" type="line"/>
      <point x="252" y="714" type="line"/>
      <point x="302" y="746" type="line"/>
      <point x="363" y="650" type="line"/>
      <point x="475" y="703" type="line"/>
      <point x="495" y="659" type="line"/>
      <point x="389" y="608" type="line"/>
      <point x="476" y="470" type="line" smooth="yes"/>
      <point x="507" y="421"/>
      <point x="507" y="370" type="qcurve" smooth="yes"/>
      <point x="507" y="146" type="line" smooth="yes"/>
      <point x="507" y="0"/>
      <point x="361" y="0" type="qcurve" smooth="yes"/>
      <point x="221" y="0" type="line" smooth="yes"/>
      <point x="74" y="0"/>
    </contour>
    <contour>
      <point x="137" y="136" type="line" smooth="yes"/>
      <point x="137" y="55"/>
      <point x="218" y="55" type="qcurve" smooth="yes"/>
      <point x="363" y="55" type="line" smooth="yes"/>
      <point x="445" y="55"/>
      <point x="445" y="136" type="qcurve" smooth="yes"/>
      <point x="445" y="395" type="line"/>
      <point x="218" y="395" type="line" smooth="yes"/>
      <point x="137" y="395"/>
      <point x="137" y="314" type="qcurve" smooth="yes"/>
    </contour>
  </outline>
</glyph>
<glyph name="dotlessi" format="2">
  <advance width="227"/>
  <unicode hex="0131"/>
  <outline>
    <contour>
      <point x="82" y="0" type="line"/>
      <point x="82" y="518" type="line"/>
      <point x="145" y="518" type="line"/>
      <point x="145" y="0" type="line"/>
    </contour>
  </outline>
</glyph>
<glyph name="Lslash" format="2">
  <advance width="534"/>
  <unicode hex="0141"/>
  <outline>
    <contour>
      <point x="10" y="277" type="line"/>
      <point x="97" y="328" type="line"/>
      <point x="97" y="690" type="line"/>
      <point x="163" y="690" type="line"/>
      <point x="163" y="365" type="line"/>
      <point x="305" y="448" type="line"/>
      <point x="331" y="403" type="line"/>
      <point x="163" y="306" type="line"/>
      <point x="163" y="60" type="line"/>
      <point x="510" y="60" type="line"/>
      <point x="510" y="0" type="line"/>
      <point x="97" y="0" type="line"/>
      <point x="97" y="267" type="line"/>
      <point x="36" y="232" type="line"/>
    </contour>
  </outline>
</glyph>
<glyph name="lslash" format="2">
  <advance width="259"/>
  <unicode hex="0142"/>
  <outline>
    <contour>
      <point x="6" y="331" type="line"/>
      <point x="86" y="378" type="line"/>
      <point x="86" y="740" type="line"/>
      <point x="149" y="740" type="line"/>
      <point x="149" y="414" type="line"/>
      <point x="226" y="458" type="line"/>
      <point x="251" y="416" type="line"/>
      <point x="149" y="357" type="line"/>
      <point x="149" y="121" type="line" smooth="yes"/>
      <point x="149" y="51"/>
      <point x="220" y="48" type="qcurve"/>
      <point x="220" y="-7" type="line"/>
      <point x="86" y="-7"/>
      <point x="86" y="127" type="qcurve" smooth="yes"/>
      <point x="86" y="322" type="line"/>
      <point x="30" y="288" type="line"/>
    </contour>
  </outline>
</glyph>
<glyph name="oe" format="2">
  <advance width="916"/>
  <unicode hex="0153"/>
  <outline>
    <contour>
      <point x="74" y="146" type="qcurve" smooth="yes"/>
      <point x="74" y="371" type="line" smooth="yes"/>
      <point x="74" y="518"/>
      <point x="221" y="518" type="qcurve" smooth="yes"/>
      <point x="348" y="518" type="line" smooth="yes"/>
      <point x="425" y="518"/>
      <point x="463" y="476" type="qcurve"/>
      <point x="501" y="518"/>
      <point x="578" y="518" type="qcurve" smooth="yes"/>
      <point x="695" y="518" type="line" smooth="yes"/>
      <point x="841" y="518"/>
      <point x="841" y="371" type="qcurve" smooth="yes"/>
      <point x="841" y="232" type="line"/>
      <point x="494" y="232" type="line"/>
      <point x="494" y="136" type="line" smooth="yes"/>
      <point x="494" y="55"/>
      <point x="576" y="55" type="qcurve" smooth="yes"/>
      <point x="821" y="55" type="line"/>
      <point x="821" y="26" type="line"/>
      <point x="787" y="0" type="line"/>
      <point x="578" y="0" type="line" smooth="yes"/>
      <point x="501" y="0"/>
      <point x="463" y="42" type="qcurve"/>
      <point x="425" y="0"/>
      <point x="348" y="0" type="qcurve" smooth="yes"/>
      <point x="221" y="0" type="line" smooth="yes"/>
      <point x="74" y="0"/>
    </contour>
    <contour>
      <point x="137" y="136" type="line" smooth="yes"/>
      <point x="137" y="55"/>
      <point x="218" y="55" type="qcurve" smooth="yes"/>
      <point x="350" y="55" type="line" smooth="yes"/>
      <point x="432" y="55"/>
      <point x="432" y="136" type="qcurve" smooth="yes"/>
      <point x="432" y="381" type="line" smooth="yes"/>
      <point x="432" y="463"/>
      <point x="350" y="463" type="qcurve" smooth="yes"/>
      <point x="218" y="463" type="line" smooth="yes"/>
      <point x="137" y="463"/>
      <point x="137" y="381" type="qcurve" smooth="yes"/>
    </contour>
    <contour>
      <point x="494" y="287" type="line"/>
      <point x="779" y="287" type="line"/>
      <point x="779" y="381" type="line" smooth="yes"/>
      <point x="779" y="463"/>
      <point x="697" y="463" type="qcurve" smooth="yes"/>
      <point x="576" y="463" type="line" smooth="yes"/>
      <point x="494" y="463"/>
      <point x="494" y="381" type="qcurve" smooth="yes"/>
    </contour>
  </outline>
</glyph>
<glyph name="florin" format="2">
  <advance width="568"/>
  <unicode hex="0192"/>
  <outline>
    <contour>
      <point x="40" y="-78" type="line"/>
      <point x="111" y="-78" type="line" smooth="yes"/>
      <point x="192" y="-78"/>
      <point x="192" y="3" type="qcurve" smooth="yes"/>
      <point x="192" y="594" type="line" smooth="yes"/>
      <point x="192" y="740"/>
      <point x="339" y="740" type="qcurve" smooth="yes"/>
      <point x="426" y="740" type="line"/>
      <point x="460" y="714" type="line"/>
      <point x="460" y="685" type="line"/>
      <point x="336" y="685" type="line" smooth="yes"/>
      <point x="255" y="685"/>
      <point x="255" y="604" type="qcurve" smooth="yes"/>
      <point x="255" y="518" type="line"/>
      <point x="450" y="518" type="line"/>
      <point x="450" y="463" type="line"/>
      <point x="255" y="463" type="line"/>
      <point x="255" y="13" type="line" smooth="yes"/>
      <point x="255" y="-133"/>
      <point x="109" y="-133" type="qcurve" smooth="yes"/>
      <point x="74" y="-133" type="line"/>
      <point x="40" y="-108" type="line"/>
    </contour>
  </outline>
</glyph>
<glyph name="uni0237" format="2">
  <advance width="227"/>
  <unicode hex="0237"/>
  <outline>
    <contour>
      <point x="-7" y="-152" type="line"/>
      <point x="82" y="-148"/>
      <point x="82" y="-60" type="qcurve" smooth="yes"/>
      <point x="82" y="518" type="line"/>
      <point x="145" y="518" type="line"/>
      <point x="145" y="-55" type="line" smooth="yes"/>
      <point x="145" y="-207"/>
      <point x="-7" y="-207" type="qcurve"/>
    </contour>
  </outline>
</glyph>
<glyph name="uni0300" format="2">
  <advance width="0"/>
  <unicode hex="0300"/>
  <outline>
    <contour>
      <point x="-399" y="705" type="line"/>
      <point x="-355" y="747" type="line"/>
      <point x="-230" y="605" type="line"/>
      <point x="-266" y="571" type="line"/>
    </contour>
  </outline>
</glyph>
<glyph name="uni0304" format="2">
  <advance width="0"/>
  <unicode hex="0304"/>
  <outline>
    <contour>
      <point x="-410" y="627" type="line"/>
      <point x="-410" y="682" type="line"/>
      <point x="-160" y="682" type="line"/>
      <point x="-160" y="627" type="line"/>
    </contour>
  </outline>
</glyph>
<glyph name="uni0306" format="2">
  <advance width="0"/>
  <unicode hex="0306"/>
  <outline>
    <contour>
      <point x="-406" y="669" type="qcurve" smooth="yes"/>
      <point x="-406" y="723" type="line"/>
      <point x="-360" y="723" type="line"/>
      <point x="-360" y="666" type="line" smooth="yes"/>
      <point x="-360" y="645"/>
      <point x="-339" y="645" type="qcurve" smooth="yes"/>
      <point x="-231" y="645" type="line" smooth="yes"/>
      <point x="-210" y="645"/>
      <point x="-210" y="666" type="qcurve" smooth="yes"/>
      <point x="-210" y="723" type="line"/>
      <point x="-164" y="723" type="line"/>
      <point x="-164" y="669" type="line" smooth="yes"/>
      <point x="-164" y="599"/>
      <point x="-234" y="599" type="qcurve" smooth="yes"/>
      <point x="-336" y="599" type="line" smooth="yes"/>
      <point x="-406" y="599"/>
    </contour>
  </outline>
</glyph>
<glyph name="uni030B" format="2">
  <advance width="0"/>
  <unicode hex="030B"/>
  <outline>
    <contour>
      <point x="-402" y="602" type="line"/>
      <point x="-291" y="747" type="line"/>
      <point x="-245" y="708" type="line"/>
      <point x="-366" y="571" type="line"/>
    </contour>
    <contour>
      <point x="-243" y="602" type="line"/>
      <point x="-132" y="747" type="line"/>
      <point x="-86" y="708" type="line"/>
      <point x="-207" y="571" type="line"/>
    </contour>
  </outline>
</glyph>
<glyph name="uni030C" format="2">
  <advance width="0"/>
  <unicode hex="030C"/>
  <outline>
    <contour>
      <point x="-417" y="702" type="line"/>
      <point x="-384" y="737" type="line"/>
      <point x="-285" y="642" type="line"/>
      <point x="-186" y="737" type="line"/>
      <point x="-152" y="702" type="line"/>
      <point x="-285" y="573" type="line"/>
    </contour>
  </outline>
</glyph>
<glyph name="uni0326" format="2">
  <advance width="0"/>
  <unicode hex="0326"/>
  <outline>
    <contour>
      <point x="-349" y="-186" type="line"/>
      <point x="-315" y="-50" type="line"/>
      <point x="-258" y="-50" type="line"/>
      <point x="-250" y="-62" type="line"/>
      <point x="-303" y="-198" type="line"/>
    </contour>
  </outline>
</glyph>
<glyph name="uni0327" format="2">
  <advance width="0"/>
  <unicode hex="0327"/>
  <outline>
    <contour>
      <point x="-394" y="-132" type="line"/>
      <point x="-295" y="-132" type="line" smooth="yes"/>
      <point x="-257" y="-132"/>
      <point x="-257" y="-94" type="qcurve" smooth="yes"/>
      <point x="-257" y="28" type="line"/>
      <point x="-205" y="28" type="line"/>
      <point x="-205" y="-86" type="line" smooth="yes"/>
      <point x="-205" y="-178"/>
      <point x="-299" y="-178" type="qcurve" smooth="yes"/>
      <point x="-367" y="-178" type="line"/>
      <point x="-394" y="-157" type="line"/>
    </contour>
  </outline>
</glyph>
<glyph name="uni0328" format="2">
  <advance width="0"/>
  <unicode hex="0328"/>
  <outline>
    <contour>
      <point x="-352" y="-46" type="line" smooth="yes"/>
      <point x="-352" y="47"/>
      <point x="-259" y="47" type="qcurve" smooth="yes"/>
      <point x="-234" y="47" type="line"/>
      <point x="-234" y="0" type="line"/>
      <point x="-263" y="0" type="line" smooth="yes"/>
      <point x="-301" y="0"/>
      <point x="-301" y="-38" type="qcurve" smooth="yes"/>
      <point x="-301" y="-94" type="line" smooth="yes"/>
      <point x="-301" y="-132"/>
      <point x="-263" y="-132" type="qcurve" smooth="yes"/>
      <point x="-167" y="-132" type="line"/>
      <point x="-167" y="-157" type="line"/>
      <point x="-195" y="-178" type="line"/>
      <point x="-259" y="-178" type="line" smooth="yes"/>
      <point x="-352" y="-178"/>
      <point x="-352" y="-85" type="qcurve" smooth="yes"/>
    </contour>
  </outline>
</glyph>
<glyph name="pi" format="2">
  <advance width="588"/>
  <unicode hex="03C0"/>
  <outline>
    <contour>
      <point x="82" y="0" type="line"/>
      <point x="82" y="518" type="line"/>
      <point x="505" y="518" type="line"/>
      <point x="505" y="0" type="line"/>
      <point x="443" y="0" type="line"/>
      <point x="443" y="463" type="line"/>
      <point x="145" y="463" type="line"/>
      <point x="145" y="0" type="line"/>
    </contour>
  </outline>
</glyph>
<glyph name="uni1E9E" format="2">
  <advance width="679"/>
  <unicode hex="1E9E"/>
  <outline>
    <contour>
      <point x="86" y="0" type="line"/>
      <point x="86" y="542" type="line" smooth="yes"/>
      <point x="86" y="690"/>
      <point x="235" y="690" type="qcurve" smooth="yes"/>
      <point x="559" y="690" type="line"/>
      <point x="559" y="636" type="line"/>
      <point x="375" y="394" type="line"/>
      <point x="468" y="394" type="line" smooth="yes"/>
      <point x="616" y="394"/>
      <point x="616" y="246" type="qcurve" smooth="yes"/>
      <point x="616" y="148" type="line" smooth="yes"/>
      <point x="616" y="0"/>
      <point x="468" y="0" type="qcurve" smooth="yes"/>
      <point x="308" y="0" type="line"/>
      <point x="270" y="30" type="line"/>
      <point x="270" y="60" type="line"/>
      <point x="471" y="60" type="line" smooth="yes"/>
      <point x="550" y="60"/>
      <point x="550" y="139" type="qcurve" smooth="yes"/>
      <point x="550" y="255" type="line" smooth="yes"/>
      <point x="550" y="334"/>
      <point x="471" y="334" type="qcurve" smooth="yes"/>
      <point x="293" y="334" type="line"/>
      <point x="293" y="388" type="line"/>
      <point x="477" y="630" type="line"/>
      <point x="232" y="630" type="line" smooth="yes"/>
      <point x="152" y="630"/>
      <point x="152" y="551" type="qcurve" smooth="yes"/>
      <point x="152" y="0" type="line"/>
    </contour>
  </outline>
</glyph>
<glyph name="endash" format="2">
  <advance width="580"/>
  <unicode hex="2013"/>
  <outline>
    <contour>
      <point x="40" y="277" type="line"/>
      <point x="40" y="333" type="line"/>
      <point x="540" y="333" type="line"/>
      <point x="540" y="277" type="line"/>
    </contour>
  </outline>
</glyph>
<glyph name="quoteleft" format="2">
  <advance width="255"/>
  <unicode hex="2018"/>
  <outline>
    <contour>
      <point x="69" y="524" type="line"/>
      <point x="153" y="747" type="line"/>
      <point x="200" y="735" type="line"/>
      <point x="141" y="512" type="line"/>
      <point x="77" y="512" type="line"/>
    </contour>
  </outline>
</glyph>
<glyph name="quotesinglbase" format="2">
  <advance width="255"/>
  <unicode hex="201A"/>
  <outline>
    <contour>
      <point x="35" y="-125" type="line"/>
      <point x="94" y="98" type="line"/>
      <point x="159" y="98" type="line"/>
      <point x="166" y="86" type="line"/>
      <point x="82" y="-137" type="line"/>
    </contour>
  </outline>
</glyph>
<glyph name="daggerdbl" format="2">
  <advance width="488"/>
  <unicode hex="2021"/>
  <outline>
    <contour>
      <point x="50" y="107" type="line"/>
      <point x="50" y="163" type="line"/>
      <point x="214" y="163" type="line"/>
      <point x="214" y="427" type="line"/>
      <point x="50" y="427" type="line"/>
      <point x="50" y="483" type="line"/>
      <point x="214" y="483" type="line"/>
      <point x="214" y="690" type="line"/>
      <point x="273" y="690" type="line"/>
      <point x="273" y="483" type="line"/>
      <point x="438" y="483" type="line"/>
      <point x="438" y="427" type="line"/>
      <point x="273" y="427" type="line"/>
      <point x="273" y="163" type="line"/>
      <point x="438" y="163" type="line"/>
      <point x="438" y="107" type="line"/>
      <point x="273" y="107" type="line"/>
      <point x="273" y="-100" type="line"/>
      <point x="214" y="-100" type="line"/>
      <point x="214" y="107" type="line"/>
    </contour>
  </outline>
</glyph>
<glyph name="bullet" format="2">
  <advance width="358"/>
  <unicode hex="2022"/>
  <outline>
    <contour>
      <point x="87" y="266" type="line"/>
      <point x="87" y="454" type="line"/>
      <point x="271" y="454" type="line"/>
      <point x="271" y="266" type="line"/>
    </contour>
  </outline>
</glyph>
<glyph name="uni2074" format="2">
  <advance width="358"/>
  <unicode hex="2074"/>
  <outline>
    <contour>
      <point x="42" y="360" type="line"/>
      <point x="42" y="402" type="line"/>
      <point x="180" y="690" type="line"/>
      <point x="224" y="690" type="line"/>
      <point x="230" y="678" type="line"/>
      <point x="101" y="406" type="line"/>
      <point x="266" y="406" type="line"/>
      <point x="266" y="545" type="line"/>
      <point x="316" y="545" type="line"/>
      <point x="316" y="282" type="line"/>
      <point x="266" y="282" type="line"/>
      <point x="266" y="360" type="line"/>
    </contour>
  </outline>
</glyph>
<glyph name="uni20BA" format="2">
  <advance width="578"/>
  <unicode hex="20BA"/>
  <outline>
    <contour>
      <point x="25" y="302" type="line"/>
      <point x="128" y="343" type="line"/>
      <point x="128" y="421" type="line"/>
      <point x="44" y="387" type="line"/>
      <point x="25" y="437" type="line"/>
      <point x="128" y="478" type="line"/>
      <point x="128" y="690" type="line"/>
      <point x="194" y="690" type="line"/>
      <point x="194" y="505" type="line"/>
      <point x="391" y="584" type="line"/>
      <point x="411" y="534" type="line"/>
      <point x="194" y="448" type="line"/>
      <point x="194" y="370" type="line"/>
      <point x="391" y="449" type="line"/>
      <point x="411" y="399" type="line"/>
      <point x="194" y="312" type="line"/>
      <point x="194" y="60" type="line"/>
      <point x="284" y="60" type="line" smooth="yes"/>
      <point x="458" y="60"/>
      <point x="458" y="234" type="qcurve" smooth="yes"/>
      <point x="458" y="300" type="line"/>
      <point x="520" y="300" type="line"/>
      <point x="520" y="240" type="line" smooth="yes"/>
      <point x="520" y="0"/>
      <point x="280" y="0" type="qcurve" smooth="yes"/>
      <point x="128" y="0" type="line"/>
      <point x="128" y="286" type="line"/>
      <point x="44" y="252" type="line"/>
    </contour>
  </outline>
</glyph>
<glyph name="Omega" format="2">
  <advance width="698"/>
  <unicode hex="2126"/>
  <outline>
    <contour>
      <point x="62" y="0" type="line"/>
      <point x="62" y="60" type="line"/>
      <point x="206" y="60" type="line"/>
      <point x="114" y="181" type="line" smooth="yes"/>
      <point x="82" y="224"/>
      <point x="82" y="278" type="qcurve" smooth="yes"/>
      <point x="82" y="542" type="line" smooth="yes"/>
      <point x="82" y="690"/>
      <point x="231" y="690" type="qcurve" smooth="yes"/>
      <point x="467" y="690" type="line" smooth="yes"/>
      <point x="615" y="690"/>
      <point x="615" y="542" type="qcurve" smooth="yes"/>
      <point x="615" y="278" type="line" smooth="yes"/>
      <point x="615" y="224"/>
      <point x="583" y="181" type="qcurve" smooth="yes"/>
      <point x="492" y="60" type="line"/>
      <point x="635" y="60" type="line"/>
      <point x="635" y="0" type="line"/>
      <point x="412" y="0" type="line"/>
      <point x="412" y="55" type="line"/>
      <point x="522" y="202" type="line" smooth="yes"/>
      <point x="549" y="238"/>
      <point x="549" y="281" type="qcurve" smooth="yes"/>
      <point x="549" y="551" type="line" smooth="yes"/>
      <point x="549" y="630"/>
      <point x="470" y="630" type="qcurve" smooth="yes"/>
      <point x="228" y="630" type="line" smooth="yes"/>
      <point x="148" y="630"/>
      <point x="148" y="551" type="qcurve" smooth="yes"/>
      <point x="148" y="281" type="line" smooth="yes"/>
      <point x="148" y="238"/>
      <point x="175" y="202" type="qcurve" smooth="yes"/>
      <point x="285" y="55" type="line"/>
      <point x="285" y="0" type="line"/>
    </contour>
  </outline>
</glyph>
<glyph name="summation" format="2">
  <advance width="574"/>
  <unicode hex="2211"/>
  <outline>
    <contour>
      <point x="50" y="-46" type="line"/>
      <point x="289" y="295" type="line"/>
      <point x="50" y="636" type="line"/>
      <point x="50" y="690" type="line"/>
      <point x="524" y="690" type="line"/>
      <point x="524" y="630" type="line"/>
      <point x="130" y="630" type="line"/>
      <point x="364" y="295" type="line"/>
      <point x="130" y="-40" type="line"/>
      <point x="524" y="-40" type="line"/>
      <point x="524" y="-100" type="line"/>
      <point x="50" y="-100" type="line"/>
    </contour>
  </outline>
</glyph>
<glyph name="minus" format="2">
  <advance width="578"/>
  <unicode hex="2212"/>
  <outline>
    <contour>
      <point x="65" y="307" type="line"/>
      <point x="65" y="363" type="line"/>
      <point x="513" y="363" type="line"/>
      <point x="513" y="307" type="line"/>
    </contour>
  </outline>
</glyph>
<glyph name="infinity" format="2">
  <advance width="609"/>
  <unicode hex="221E"/>
  <outline>
    <contour>
      <point x="42" y="281" type="qcurve" smooth="yes"/>
      <point x="42" y="389" type="line" smooth="yes"/>
      <point x="42" y="482"/>
      <point x="136" y="482" type="qcurve" smooth="yes"/>
      <point x="232" y="482" type="line" smooth="yes"/>
      <point x="270" y="482"/>
      <point x="304" y="448" type="qcurve"/>
      <point x="338" y="482"/>
      <point x="376" y="482" type="qcurve" smooth="yes"/>
      <point x="473" y="482" type="line" smooth="yes"/>
      <point x="566" y="482"/>
      <point x="566" y="389" type="qcurve" smooth="yes"/>
      <point x="566" y="281" type="line" smooth="yes"/>
      <point x="566" y="188"/>
      <point x="473" y="188" type="qcurve" smooth="yes"/>
      <point x="376" y="188" type="line" smooth="yes"/>
      <point x="338" y="188"/>
      <point x="304" y="222" type="qcurve"/>
      <point x="270" y="188"/>
      <point x="232" y="188" type="qcurve" smooth="yes"/>
      <point x="136" y="188" type="line" smooth="yes"/>
      <point x="42" y="188"/>
    </contour>
    <contour>
      <point x="93" y="272" type="line" smooth="yes"/>
      <point x="93" y="234"/>
      <point x="131" y="234" type="qcurve" smooth="yes"/>
      <point x="241" y="234" type="line" smooth="yes"/>
      <point x="279" y="234"/>
      <point x="279" y="272" type="qcurve" smooth="yes"/>
      <point x="279" y="398" type="line" smooth="yes"/>
      <point x="279" y="436"/>
      <point x="241" y="436" type="qcurve" smooth="yes"/>
      <point x="131" y="436" type="line" smooth="yes"/>
      <point x="93" y="436"/>
      <point x="93" y="398" type="qcurve" smooth="yes"/>
    </contour>
    <contour>
      <point x="330" y="272" type="line" smooth="yes"/>
      <point x="330" y="234"/>
      <point x="368" y="234" type="qcurve" smooth="yes"/>
      <point x="478" y="234" type="line" smooth="yes"/>
      <point x="516" y="234"/>
      <point x="516" y="272" type="qcurve" smooth="yes"/>
      <point x="516" y="398" type="line" smooth="yes"/>
      <point x="516" y="436"/>
      <point x="478" y="436" type="qcurve" smooth="yes"/>
      <point x="368" y="436" type="line" smooth="yes"/>
      <point x="330" y="436"/>
      <point x="330" y="398" type="qcurve" smooth="yes"/>
    </contour>
  </outline>
</glyph>
<glyph name="integral" format="2">
  <advance width="403"/>
  <unicode hex="222B"/>
  <outline>
    <contour>
      <point x="20" y="-145" type="line"/>
      <point x="89" y="-145" type="line" smooth="yes"/>
      <point x="170" y="-145"/>
      <point x="170" y="-64" type="qcurve" smooth="yes"/>
      <point x="170" y="594" type="line" smooth="yes"/>
      <point x="170" y="740"/>
      <point x="316" y="740" type="qcurve" smooth="yes"/>
      <point x="349" y="740" type="line"/>
      <point x="383" y="714" type="line"/>
      <point x="383" y="685" type="line"/>
      <point x="314" y="685" type="line" smooth="yes"/>
      <point x="233" y="685"/>
      <point x="233" y="604" type="qcurve" smooth="yes"/>
      <point x="233" y="-54" type="line" smooth="yes"/>
      <point x="233" y="-200"/>
      <point x="86" y="-200" type="qcurve" smooth="yes"/>
      <point x="54" y="-200" type="line"/>
      <point x="20" y="-174" type="line"/>
    </contour>
  </outline>
</glyph>
<glyph name="notequal" format="2">
  <advance width="578"/>
  <unicode hex="2260"/>
  <outline>
    <contour>
      <point x="65" y="197" type="line"/>
      <point x="65" y="253" type="line"/>
      <point x="219" y="253" type="line"/>
      <point x="302" y="417" type="line"/>
      <point x="65" y="417" type="line"/>
      <point x="65" y="473" type="line"/>
      <point x="331" y="473" type="line"/>
      <point x="396" y="602" type="line"/>
      <point x="441" y="579" type="line"/>
      <point x="388" y="473" type="line"/>
      <point x="513" y="473" type="line"/>
      <point x="513" y="417" type="line"/>
      <point x="359" y="417" type="line"/>
      <point x="276" y="253" type="line"/>
      <point x="513" y="253" type="line"/>
      <point x="513" y="197" type="line"/>
      <point x="247" y="197" type="line"/>
      <point x="182" y="68" type="line"/>
      <point x="137" y="91" type="line"/>
      <point x="190" y="197" type="line"/>
    </contour>
  </outline>
</glyph>
<glyph name="greaterequal" format="2">
  <advance width="578"/>
  <unicode hex="2265"/>
  <outline>
    <contour>
      <point x="65" y="0" type="line"/>
      <point x="65" y="56" type="line"/>
      <point x="513" y="56" type="line"/>
      <point x="513" y="0" type="line"/>
    </contour>
    <contour>
      <point x="67" y="156" type="line"/>
      <point x="458" y="339" type="line"/>
      <point x="67" y="522" type="line"/>
      <point x="91" y="572" type="line"/>
      <point x="514" y="370" type="line"/>
      <point x="514" y="308" type="line"/>
      <point x="91" y="105" type="line"/>
    </contour>
  </outline>
</glyph>
<glyph name="lozenge" format="2">
  <advance width="578"/>
  <unicode hex="25CA"/>
  <outline>
    <contour>
      <point x="62" y="345" type="line"/>
      <point x="260" y="690" type="line"/>
      <point x="318" y="690" type="line"/>
      <point x="516" y="345" type="line"/>
      <point x="318" y="0" type="line"/>
      <point x="260" y="0" type="line"/>
    </contour>
    <contour>
      <point x="120" y="345" type="line"/>
      <point x="289" y="51" type="line"/>
      <point x="458" y="345" type="line"/>
      <point x="289" y="639" type="line"/>
    </contour>
  </outline>
</glyph>
<glyph name=".notdef" format="2">
  <advance width="584"/>
  <outline>
    <contour>
      <point x="96" y="0" type="line"/>
      <point x="96" y="740" type="line"/>
      <point x="487" y="740" type="line"/>
      <point x="487" y="0" type="line"/>
    </contour>
    <contour>
      <point x="137" y="41" type="line"/>
      <point x="446" y="41" type="line"/>
      <point x="446" y="699" type="line"/>
      <point x="137" y="699" type="line"/>
    </contour>
  </outline>
</glyph>
<glyph name="uni0302.cap" format="2">
  <advance width="0"/>
  <outline>
    <contour>
      <point x="-449" y="780" type="line"/>
      <point x="-317" y="909" type="line"/>
      <point x="-185" y="780" type="line"/>
      <point x="-218" y="745" type="line"/>
      <point x="-317" y="839" type="line"/>
      <point x="-416" y="745" type="line"/>
    </contour>
  </outline>
</glyph>
<glyph name="uni030A.cap" format="2">
  <advance width="0"/>
  <outline>
    <contour>
      <point x="-415" y="804" type="qcurve" smooth="yes"/>
      <point x="-415" y="855" type="line" smooth="yes"/>
      <point x="-415" y="924"/>
      <point x="-346" y="924" type="qcurve" smooth="yes"/>
      <point x="-288" y="924" type="line" smooth="yes"/>
      <point x="-219" y="924"/>
      <point x="-219" y="855" type="qcurve" smooth="yes"/>
      <point x="-219" y="804" type="line" smooth="yes"/>
      <point x="-219" y="735"/>
      <point x="-288" y="735" type="qcurve" smooth="yes"/>
      <point x="-346" y="735" type="line" smooth="yes"/>
      <point x="-415" y="735"/>
    </contour>
    <contour>
      <point x="-370" y="798" type="line" smooth="yes"/>
      <point x="-370" y="774"/>
      <point x="-347" y="774" type="qcurve" smooth="yes"/>
      <point x="-287" y="774" type="line" smooth="yes"/>
      <point x="-263" y="774"/>
      <point x="-263" y="798" type="qcurve" smooth="yes"/>
      <point x="-263" y="861" type="line" smooth="yes"/>
      <point x="-263" y="885"/>
      <point x="-287" y="885" type="qcurve" smooth="yes"/>
      <point x="-347" y="885" type="line" smooth="yes"/>
      <point x="-370" y="885"/>
      <point x="-370" y="861" type="qcurve" smooth="yes"/>
    </contour>
  </outline>
</glyph>
<glyph name="uni030C.alt" format="2">
  <advance width="0"/>
  <outline>
    <contour>
      <point x="-46" y="595" type="line"/>
      <point x="-13" y="758" type="line"/>
      <point x="39" y="758" type="line"/>
      <point x="46" y="746" type="line"/>
      <point x="-7" y="585" type="line"/>
    </contour>
  </outline>
</glyph>
<glyph name="uni030C.cap" format="2">
  <advance width="0"/>
  <outline>
    <contour>
      <point x="-449" y="864" type="line"/>
      <point x="-416" y="899" type="line"/>
      <point x="-317" y="805" type="line"/>
      <point x="-218" y="899" type="line"/>
      <point x="-185" y="864" type="line"/>
      <point x="-317" y="735" type="line"/>
    </contour>
  </outline>
</glyph>
<glyph name="zero.zero" format="2">
  <advance width="578"/>
  <outline>
    <contour>
      <point x="68" y="148" type="qcurve" smooth="yes"/>
      <point x="68" y="542" type="line" smooth="yes"/>
      <point x="68" y="690"/>
      <point x="216" y="690" type="qcurve" smooth="yes"/>
      <point x="362" y="690" type="line" smooth="yes"/>
      <point x="510" y="690"/>
      <point x="510" y="542" type="qcurve" smooth="yes"/>
      <point x="510" y="148" type="line" smooth="yes"/>
      <point x="510" y="0"/>
      <point x="362" y="0" type="qcurve" smooth="yes"/>
      <point x="216" y="0" type="line" smooth="yes"/>
      <point x="68" y="0"/>
    </contour>
    <contour>
      <point x="134" y="139" type="line" smooth="yes"/>
      <point x="134" y="60"/>
      <point x="213" y="60" type="qcurve" smooth="yes"/>
      <point x="365" y="60" type="line" smooth="yes"/>
      <point x="444" y="60"/>
      <point x="444" y="139" type="qcurve" smooth="yes"/>
      <point x="444" y="551" type="line" smooth="yes"/>
      <point x="444" y="630"/>
      <point x="365" y="630" type="qcurve" smooth="yes"/>
      <point x="213" y="630" type="line" smooth="yes"/>
      <point x="134" y="630"/>
      <point x="134" y="551" type="qcurve" smooth="yes"/>
    </contour>
    <contour>
      <point x="247" y="287" type="line"/>
      <point x="247" y="403" type="line"/>
      <point x="331" y="403" type="line"/>
      <point x="331" y="287" type="line"/>
    </contour>
  </outline>
</glyph>
